# xmcd
#
# Track frame offsets: 
#        150
#        11909
#        23057
#        36464
#        48134
#        57869
#        69027
#        80083
#        93329
#        103362
#        113942
#        124462
#        136221
#        148514
#        161303
#        173741
#        185486
#        197283
#        209912
#        221366
#        232959
#        245011
#        257470
#        268062
#        279516
#
# Disc length: 3910 seconds
#
# Revision: 2
# Processed by: cddbd v1.5.2PL0 Copyright (c) Steve Scherf et al.
# Submitted via: ExactAudioCopy v1.0b6
#
DISCID=6b0f4419
DTITLE=Various Artist - Move On Up Volume Two - The Very Best Of Nort
DTITLE=hern Soul
DYEAR=2016
DGENRE=Northern Soul
TTITLE0=The Luther Ingram Orchestra - Exus Trek
TTITLE1=Ray Charles - I Don't Need No Doctor
TTITLE2=Etta James - Seven Day Fool
TTITLE3=The Commodores - Keep On Dancin'
TTITLE4=Sam Ward - Sister Lee
TTITLE5=Stanley Mitchell - Get It Baby
TTITLE6=Major Lance - It's The Beat
TTITLE7=Earl Wright and His Orchestra - Thumb A Ride
TTITLE8=Dana Valery - You Don't Know Where Your Interest Lies
TTITLE9=Dena Barnes - If You Ever Walk Out Of My Life
TTITLE10=Nancy Wilson - The End Of Our Love
TTITLE11=Earl Grant - Hide Nor Hair
TTITLE12=Four Tops - I Can't Help Myself
TTITLE13=Steve Karmen Big Band - Breakaway
TTITLE14=World Column - So Is The Sun
TTITLE15=Howard Guyton - I Watched You Slowly Slip Away
TTITLE16=The Apollas - Mr Creator
TTITLE17=JJ Barnes - (Tell Me) Ain't It The Truth
TTITLE18=JT Parker - If You Want To Hold On
TTITLE19=Pointer Sisters - Send Him Back
TTITLE20=Jimmy Ruffin - He Who Picks A Rose
TTITLE21=Kiki Dee - The Day Will Come Between Sunday And Monday
TTITLE22=Jerry Butler - Moody Woman
TTITLE23=William Bell - Happy
TTITLE24=Tobi Legend - Time Will Pass You By
EXTD=
EXTT0=
EXTT1=
EXTT2=
EXTT3=
EXTT4=
EXTT5=
EXTT6=
EXTT7=
EXTT8=
EXTT9=
EXTT10=
EXTT11=
EXTT12=
EXTT13=
EXTT14=
EXTT15=
EXTT16=
EXTT17=
EXTT18=
EXTT19=
EXTT20=
EXTT21=
EXTT22=
EXTT23=
EXTT24=
PLAYORDER=
